<svg width="72" height="72" viewBox="0 0 72 72" fill="none" xmlns="http://www.w3.org/2000/svg">
<g filter="url(#filter0_d_157_135)">
<path d="M62 34C62 48.3594 50.3594 60 36 60C21.6406 60 10 48.3594 10 34C10 19.6406 21.6406 8 36 8C50.3594 8 62 19.6406 62 34Z" fill="#00E676"/>
<g clip-path="url(#clip0_157_135)">
<path fill-rule="evenodd" clip-rule="evenodd" d="M41.8663 36.5805C41.5434 36.4191 39.9607 35.6413 39.666 35.5329C39.3713 35.4257 39.1568 35.3726 38.9413 35.6954C38.7268 36.0161 38.1103 36.7419 37.9229 36.9564C37.7344 37.172 37.547 37.198 37.2253 37.0377C36.9035 36.8752 35.8657 36.5361 34.6361 35.4398C33.6795 34.5861 33.0328 33.532 32.8453 33.2092C32.6579 32.8874 32.8248 32.713 32.9862 32.5527C33.1313 32.4086 33.3079 32.1768 33.4693 31.9893C33.6307 31.8008 33.6838 31.6665 33.7911 31.4509C33.8994 31.2364 33.8453 31.049 33.764 30.8876C33.6838 30.7262 33.0403 29.1413 32.7717 28.4967C32.5106 27.8694 32.2452 27.955 32.048 27.9442C31.8595 27.9355 31.645 27.9333 31.4305 27.9333C31.216 27.9333 30.8672 28.0135 30.5725 28.3363C30.2768 28.6581 29.4458 29.437 29.4458 31.0219C29.4458 32.6058 30.5985 34.1365 30.7599 34.3521C30.9213 34.5666 33.0295 37.8188 36.2589 39.213C37.0281 39.5445 37.6272 39.7428 38.0941 39.8901C38.8654 40.136 39.5674 40.1013 40.1221 40.0179C40.7396 39.9258 42.0266 39.239 42.2953 38.4872C42.5628 37.7353 42.5628 37.0908 42.4827 36.9564C42.4025 36.8221 42.188 36.7419 41.8652 36.5805H41.8663ZM35.9924 44.6004H35.9881C34.07 44.6008 32.1871 44.0851 30.5368 43.1076L30.1468 42.8758L26.0929 43.9396L27.1752 39.9876L26.9206 39.5824C25.8482 37.8755 25.2807 35.8999 25.2837 33.8841C25.2858 27.9799 30.0893 23.1764 35.9968 23.1764C38.8568 23.1764 41.5456 24.2922 43.5671 26.3159C44.5642 27.3089 45.3544 28.4897 45.8922 29.7901C46.43 31.0904 46.7046 32.4845 46.7001 33.8917C46.6979 39.7958 41.8944 44.6004 35.9924 44.6004V44.6004ZM45.1054 24.7787C43.9118 23.5772 42.4916 22.6245 40.9271 21.9759C39.3626 21.3272 37.6849 20.9955 35.9913 21C28.8912 21 23.1105 26.7796 23.1083 33.883C23.1073 36.1537 23.6998 38.3702 24.8276 40.3234L23 47L29.8293 45.2082C31.7185 46.2375 33.8356 46.7768 35.987 46.7768H35.9924C43.0926 46.7768 48.8733 40.9973 48.8754 33.8928C48.8807 32.1998 48.5502 30.5226 47.903 28.9582C47.2559 27.3938 46.3051 25.9732 45.1054 24.7787" fill="white"/>
</g>
</g>
<defs>
<filter id="filter0_d_157_135" x="0" y="0" width="72" height="72" filterUnits="userSpaceOnUse" color-interpolation-filters="sRGB">
<feFlood flood-opacity="0" result="BackgroundImageFix"/>
<feColorMatrix in="SourceAlpha" type="matrix" values="0 0 0 0 0 0 0 0 0 0 0 0 0 0 0 0 0 0 127 0" result="hardAlpha"/>
<feOffset dy="2"/>
<feGaussianBlur stdDeviation="5"/>
<feComposite in2="hardAlpha" operator="out"/>
<feColorMatrix type="matrix" values="0 0 0 0 0 0 0 0 0 0.901961 0 0 0 0 0.462745 0 0 0 0.45 0"/>
<feBlend mode="normal" in2="BackgroundImageFix" result="effect1_dropShadow_157_135"/>
<feBlend mode="normal" in="SourceGraphic" in2="effect1_dropShadow_157_135" result="shape"/>
</filter>
<clipPath id="clip0_157_135">
<rect width="26" height="26" fill="white" transform="translate(23 21)"/>
</clipPath>
</defs>
</svg>
