<svg width="36" height="36" viewBox="0 0 36 36" fill="none" xmlns="http://www.w3.org/2000/svg">
<path d="M10.0963 17.9728L17.9728 10.0963C18.669 9.40027 19.6132 9.00926 20.5977 9.00926C21.5821 9.00926 22.5263 9.40027 23.2225 10.0963L28.4742 15.3498C29.1702 16.046 29.5612 16.9902 29.5612 17.9746C29.5612 18.9591 29.1702 19.9033 28.4742 20.5995L20.5977 28.476C19.9014 29.172 18.9573 29.5631 17.9728 29.5631C16.9883 29.5631 16.0441 29.172 15.3479 28.476L10.0963 23.2207C9.40027 22.5245 9.00926 21.5803 9.00926 20.5958C9.00926 19.6113 9.40027 18.6672 10.0963 17.9709V17.9728Z" stroke="#C17A76" stroke-width="2" stroke-linecap="round" stroke-linejoin="round"/>
<path d="M27.1617 14.0355L32.8904 12.6024C33.3685 12.4829 33.8064 12.2387 34.1593 11.8947C34.5121 11.5507 34.7674 11.1192 34.8989 10.6443C35.0305 10.1693 35.0337 9.66801 34.9081 9.19147C34.7826 8.71492 34.5328 8.28023 34.1843 7.93179L30.0706 3.81626C29.7488 3.49425 29.353 3.25604 28.9178 3.1225C28.4826 2.98896 28.0213 2.96416 27.5743 3.05026C27.1273 3.13637 26.7082 3.33076 26.3538 3.6164C25.9993 3.90205 25.7203 4.27024 25.5411 4.68874L23.2244 10.0963" stroke="#C17A76" stroke-width="2" stroke-linecap="round" stroke-linejoin="round"/>
<path d="M14.0355 27.1617L12.6024 32.8904C12.4829 33.3685 12.2387 33.8064 11.8947 34.1592C11.5507 34.5121 11.1192 34.7674 10.6443 34.8989C10.1693 35.0305 9.66802 35.0337 9.19147 34.9081C8.71492 34.7826 8.28023 34.5328 7.93179 34.1843L3.81626 30.0706C3.49425 29.7488 3.25604 29.353 3.1225 28.9178C2.98896 28.4826 2.96416 28.0213 3.05026 27.5743C3.13637 27.1273 3.33076 26.7082 3.6164 26.3537C3.90205 25.9993 4.27024 25.7203 4.68874 25.5411L10.0963 23.2244" stroke="#C17A76" stroke-width="2" stroke-linecap="round" stroke-linejoin="round"/>
<path d="M6.81598 12.7093L8.25748 7.32959C8.38495 6.85415 8.69604 6.44879 9.12233 6.20268C9.54862 5.95656 10.0552 5.88982 10.5307 6.01715L14.1181 6.97907C14.5935 7.10654 14.9989 7.41763 15.245 7.84392C15.4911 8.27021 15.5578 8.7768 15.4305 9.25228L13.989 14.632C13.8615 15.1075 13.5505 15.5128 13.1242 15.7589C12.6979 16.0051 12.1913 16.0718 11.7158 15.9445L8.12796 14.9817C7.65251 14.8543 7.24716 14.5432 7.00104 14.1169C6.75492 13.6906 6.68819 13.184 6.81552 12.7085L6.81598 12.7093Z" stroke="#C17A76" stroke-width="2" stroke-linecap="round" stroke-linejoin="round"/>
<path d="M13.2212 6.73806L15.3435 4.68533C15.5207 4.51408 15.6492 4.29888 15.716 4.0617C15.7828 3.82452 15.7855 3.57386 15.7237 3.33532C15.662 3.09679 15.538 2.87891 15.3645 2.70395C15.191 2.52899 14.9742 2.4032 14.7361 2.33945L11.926 1.58579C11.7062 1.5268 11.4752 1.52261 11.2534 1.57359C11.0315 1.62456 10.8256 1.72915 10.6535 1.87818C10.4815 2.02722 10.3486 2.21616 10.2666 2.42847C10.1845 2.64077 10.1557 2.86996 10.1828 3.09596L10.5315 6.01668" stroke="#C17A76" stroke-width="2" stroke-linecap="round" stroke-linejoin="round"/>
<path d="M10.8189 15.7035L11.6305 18.5423C11.6984 18.7792 11.7021 19.0299 11.6413 19.2687C11.5806 19.5075 11.4576 19.7259 11.2848 19.9016C11.112 20.0773 10.8958 20.204 10.658 20.2687C10.4203 20.3335 10.1696 20.334 9.9316 20.2702L7.1211 19.5179C6.90122 19.459 6.69912 19.3472 6.5325 19.1921C6.36587 19.037 6.23981 18.8435 6.16534 18.6284C6.09087 18.4133 6.07027 18.1833 6.10535 17.9584C6.14042 17.7335 6.2301 17.5206 6.36653 17.3384L8.12888 14.9833" stroke="#C17A76" stroke-width="2" stroke-linecap="round" stroke-linejoin="round"/>
</svg>
