<svg width="34" height="35" viewBox="0 0 34 35" fill="none" xmlns="http://www.w3.org/2000/svg">
<path d="M15.9728 25.9037L8.09629 18.0272C7.40027 17.331 7.00926 16.3868 7.00926 15.4023C7.00926 14.4179 7.40027 13.4737 8.09629 12.7775L13.3498 7.52583C14.046 6.82981 14.9902 6.43881 15.9746 6.43881C16.9591 6.43881 17.9033 6.82981 18.5995 7.52583L26.476 15.4023C27.172 16.0986 27.5631 17.0427 27.5631 18.0272C27.5631 19.0117 27.172 19.9559 26.476 20.6521L21.2207 25.9037C20.5245 26.5997 19.5803 26.9907 18.5958 26.9907C17.6113 26.9907 16.6672 26.5997 15.9709 25.9037H15.9728Z" stroke="#C17A76" stroke-width="2" stroke-linecap="round" stroke-linejoin="round"/>
<path d="M12.0355 8.83827L10.6024 3.10957C10.4829 2.63146 10.2387 2.19361 9.8947 1.84074C9.55069 1.48787 9.11919 1.23262 8.64427 1.10106C8.16935 0.969489 7.66801 0.966322 7.19147 1.09187C6.71492 1.21743 6.28023 1.4672 5.93179 1.81569L1.81626 5.92937C1.49425 6.25115 1.25604 6.64697 1.1225 7.08218C0.988963 7.51738 0.964159 7.97868 1.05026 8.42569C1.13637 8.87271 1.33076 9.29179 1.6164 9.64624C1.90205 10.0007 2.27024 10.2797 2.68874 10.4589L8.09629 12.7756" stroke="#C17A76" stroke-width="2" stroke-linecap="round" stroke-linejoin="round"/>
<path d="M25.1617 21.9645L30.8904 23.3976C31.3685 23.5171 31.8064 23.7613 32.1593 24.1053C32.5121 24.4493 32.7674 24.8808 32.8989 25.3557C33.0305 25.8307 33.0337 26.332 32.9081 26.8085C32.7826 27.2851 32.5328 27.7198 32.1843 28.0682L28.0706 32.1837C27.7488 32.5058 27.353 32.744 26.9178 32.8775C26.4826 33.011 26.0213 33.0358 25.5743 32.9497C25.1273 32.8636 24.7082 32.6692 24.3537 32.3836C23.9993 32.098 23.7203 31.7298 23.5411 31.3113L21.2244 25.9037" stroke="#C17A76" stroke-width="2" stroke-linecap="round" stroke-linejoin="round"/>
<path d="M14.4519 26.5136L10.5136 30.4518C10.1655 30.7999 9.6934 30.9954 9.20117 30.9954C8.70893 30.9954 8.23684 30.7999 7.88873 30.4518L5.26292 27.8251C4.9149 27.477 4.7194 27.0049 4.7194 26.5127C4.7194 26.0204 4.9149 25.5483 5.26292 25.2002L9.20117 21.262C9.54928 20.914 10.0214 20.7185 10.5136 20.7185C11.0058 20.7185 11.4779 20.914 11.826 21.262L14.4519 23.8896C14.7999 24.2378 14.9954 24.7098 14.9954 25.2021C14.9954 25.6943 14.7999 26.1664 14.4519 26.5145V26.5136Z" stroke="#C17A76" stroke-width="2" stroke-linecap="round" stroke-linejoin="round"/>
<path d="M5.91913 28.4823L3.05478 29.1988C2.81573 29.2585 2.59681 29.3806 2.42037 29.5527C2.24394 29.7247 2.11631 29.9404 2.05053 30.1779C1.98474 30.4153 1.98316 30.666 2.04594 30.9043C2.10871 31.1425 2.2336 31.3599 2.40785 31.5341L4.46468 33.5919C4.62558 33.7529 4.82349 33.872 5.04109 33.9387C5.25869 34.0055 5.48934 34.0179 5.71285 33.9749C5.93635 33.9318 6.14589 33.8346 6.32312 33.6918C6.50035 33.549 6.63986 33.3649 6.72943 33.1556L7.88779 30.4519" stroke="#C17A76" stroke-width="2" stroke-linecap="round" stroke-linejoin="round"/>
<path d="M12.4823 21.9191L13.1988 19.0548C13.2585 18.8157 13.3806 18.5968 13.5526 18.4204C13.7247 18.2439 13.9404 18.1163 14.1779 18.0505C14.4153 17.9848 14.666 17.9832 14.9043 18.0459C15.1425 18.1087 15.3599 18.2336 15.5341 18.4079L17.5919 20.4647C17.7529 20.6256 17.872 20.8235 17.9387 21.0411C18.0055 21.2587 18.0179 21.4893 17.9749 21.7129C17.9318 21.9364 17.8346 22.1459 17.6918 22.3231C17.549 22.5004 17.3649 22.6399 17.1556 22.7294L14.4519 23.8878" stroke="#C17A76" stroke-width="2" stroke-linecap="round" stroke-linejoin="round"/>
</svg>
